<?xml version="1.0" encoding="UTF-8"?><svg xmlns="http://www.w3.org/2000/svg" xmlns:xlink="http://www.w3.org/1999/xlink" viewBox="0 0 175.63 274.35"><defs><style>.j{fill:url(#e);}.k{fill:url(#f);}.l{fill:url(#i);}.m{fill:url(#h);}.n{fill:#680c07;}.o{fill:#939598;}</style><linearGradient id="e" x1="-36.42" y1="167.15" x2="-15.23" y2="167.15" gradientTransform="translate(508.16 -297.05) rotate(47.79) scale(1 3.35)" gradientUnits="userSpaceOnUse"><stop offset="0" stop-color="#939598"/><stop offset="1" stop-color="#000" stop-opacity=".7"/></linearGradient><linearGradient id="f" x1="117.45" y1="165.67" x2="138.9" y2="165.67" gradientTransform="translate(579.51 -223.17) rotate(-135.79) scale(1 -3.35)" gradientUnits="userSpaceOnUse"><stop offset="0" stop-color="#939598"/><stop offset="1" stop-color="#000" stop-opacity=".7"/></linearGradient><linearGradient id="h" x1="61.19" y1="194.03" x2="82.39" y2="194.03" gradientTransform="translate(508.16 -297.05) rotate(47.79) scale(1 3.35)" gradientUnits="userSpaceOnUse"><stop offset="0" stop-color="#680c07"/><stop offset="1" stop-color="#000" stop-opacity=".7"/></linearGradient><linearGradient id="i" x1="22.83" y1="194.33" x2="44.28" y2="194.33" gradientTransform="translate(579.51 -223.17) rotate(-135.79) scale(1 -3.35)" gradientUnits="userSpaceOnUse"><stop offset="0" stop-color="#680c07"/><stop offset="1" stop-color="#000" stop-opacity=".7"/></linearGradient></defs><g id="a"/><g id="b"><g id="c"><g id="d"><polygon class="o" points="75.93 72.47 46.45 42.21 46.45 0 65.71 0 65.71 37.58 87.82 60.27 75.93 72.47"/><polygon class="o" points="175.63 0 175.63 274.35 156.36 274.35 156.36 148.3 99.7 206.45 87.82 218.65 65.71 241.34 65.71 274.35 46.45 274.35 46.45 236.72 75.93 206.45 87.82 194.26 141.19 139.47 87.82 84.68 99.7 72.47 156.36 130.62 156.36 0 175.63 0"/><polygon class="j" points="76.93 73.47 62.1 58.24 74.8 46.89 88.82 61.28 76.93 73.47"/><polygon class="k" points="86.82 83.73 101.83 99.08 113.46 86.63 98.7 71.47 86.82 83.73"/></g><g id="g"><polygon class="n" points="129.18 236.72 129.18 274.35 109.92 274.35 109.92 241.34 87.82 218.65 99.7 206.45 129.18 236.72"/><polygon class="n" points="129.18 0 129.18 42.21 99.7 72.47 87.82 84.68 34.44 139.47 87.82 194.26 75.93 206.45 19.27 148.3 19.27 274.35 0 274.35 0 0 19.27 0 19.27 130.62 75.93 72.47 87.82 60.27 109.92 37.58 109.92 0 129.18 0"/><polygon class="m" points="75.93 206.45 61.1 191.22 73.8 179.87 87.82 194.26 75.93 206.45"/><polygon class="l" points="87.82 218.71 102.83 234.06 114.46 221.61 99.7 206.45 87.82 218.71"/></g></g></g></svg>